<?xml version="1.0" standalone="no"?>
<!DOCTYPE svg PUBLIC "-//W3C//DTD SVG 20010904//EN"
 "http://www.w3.org/TR/2001/REC-SVG-20010904/DTD/svg10.dtd">
<svg version="1.0" xmlns="http://www.w3.org/2000/svg"
 width="1271.000000pt" height="1280.000000pt" viewBox="0 0 1271.000000 1280.000000"
 preserveAspectRatio="xMidYMid meet">
<metadata>
Created by potrace 1.15, written by Peter Selinger 2001-2017
</metadata>
<g transform="translate(0.000000,1280.000000) scale(0.100000,-0.100000)"
fill="#000000" stroke="none">
<path d="M7230 10510 c-1269 -92 -2339 -666 -3234 -1734 -269 -321 -500 -674
-685 -1043 -309 -618 -476 -1235 -542 -1998 -16 -181 -16 -719 0 -855 69 -612
210 -1017 509 -1465 141 -212 239 -332 389 -475 425 -408 958 -640 1658 -722
148 -17 711 -17 870 0 671 73 1275 262 1878 588 833 450 1257 914 1257 1377 0
109 -75 377 -106 377 -6 0 -25 33 -41 73 -16 39 -34 72 -40 72 -5 0 -69 -63
-140 -140 -704 -761 -1493 -1229 -2323 -1379 -250 -45 -654 -62 -865 -37 -406
50 -745 186 -1020 411 -87 71 -244 233 -310 320 -198 258 -325 607 -390 1070
-22 156 -31 654 -16 876 70 1022 372 1895 920 2667 476 670 1011 1089 1608
1261 221 64 348 80 618 81 257 0 311 -6 500 -55 310 -81 576 -241 821 -492
156 -159 244 -277 350 -468 32 -58 62 -107 66 -108 5 -2 22 -30 38 -62 16 -32
35 -62 42 -66 15 -9 191 171 269 276 172 231 239 436 205 630 -12 68 -27 110
-76 205 -84 162 -122 217 -206 301 -250 249 -719 436 -1244 499 -162 19 -585
27 -760 15z"/>
</g>
</svg>
